<svg xmlns="http://www.w3.org/2000/svg" width="205" height="195.8" viewBox="0 0 205 195.8"><circle cx="113.7" cy="91.2" r="89.2" fill="#c7eafb"/><path fill="none" stroke="#231f20" stroke-miterlimit="10" stroke-width="1.09" d="M56.3 121.8v34.5"/><path fill="#231f20" d="M44.8 137.3l7.7-7.7m-6.1 12.1l5.2-5.2"/><g fill="none" stroke="#231f20" stroke-miterlimit="10" stroke-width="1.27"><path d="M4.8 108l73.7-73.6a6.8 6.8 0 0 1 9.7 0l73.3 73.2a6.9 6.9 0 0 1 0 9.8l-.8.7a6.8 6.8 0 0 1-9.7 0L83.4 50.5l-68.1 68.1a7 7 0 0 1-10.1-.4l-.7-.8a6.9 6.9 0 0 1 .3-9.4z"/><path d="M20.8 193.1v-80l62.6-62.6 63.4 63.5v79.1z"/><path d="M37.2 121.8h38.4v34.4H37.2zm59.7 0H122a8 8 0 0 1 7.9 7.9v63.4H89v-63.4a7.9 7.9 0 0 1 7.9-7.9z"/></g><circle cx="121.9" cy="160.6" r="3.2" fill="#231f20"/><rect width="42.4" height="2.32" x="35.2" y="155.1" fill="#231f20" rx="1.2"/><path fill="#231f20" d="M60.4 146.6l9.8-9.9M62 150.6l6.7-6.7"/></svg>