<svg xmlns="http://www.w3.org/2000/svg" width="505" height="494.8" viewBox="0 0 505 494.8"><path fill="#231f20" d="M87.7 116.2c22.7 14.5 39.7 46.3 39.3 75.1a58.2 58.2 0 0 0 .2 5.9c2.1 18.9-5.4 48.7-22.7 66.6A46.9 46.9 0 0 1 56 275.6c-31.3-10.2-45.1-33.7-52.4-69.7a41.8 41.8 0 0 1-.9-7.1c-.8-15-.6-69 41.7-86.1a47.4 47.4 0 0 1 43.3 3.5zM204 9.6c22.7 14.5 39.7 46.3 39.3 75.1 0 1.9 0 3.9.2 5.9 2 18.9-5.4 48.7-22.7 66.6a47.1 47.1 0 0 1-48.5 11.8c-31.4-10.2-45.1-33.7-52.4-69.7a55.2 55.2 0 0 1-1-7.1c-.8-15-.6-69.1 41.8-86.2A47.7 47.7 0 0 1 204 9.6zm160 10.6c19.9 18.1 31.3 52.4 26 80.6a39.8 39.8 0 0 0-.8 5.9c-1.2 18.9-13.6 47.1-33.7 61.8-14.5 10.7-33.9 11.7-49.8 3.3-29.2-15.3-38.7-40.8-39.8-77.5a43.4 43.4 0 0 1 .3-7.2c1.8-15 11.1-68.2 55.8-77.8a47.5 47.5 0 0 1 42 10.9zm111.2 113.2c19.9 18.1 31.3 52.4 26 80.7a36.8 36.8 0 0 0-.8 5.8c-1.2 19-13.7 47.1-33.7 61.8-14.5 10.7-33.9 11.7-49.8 3.4-29.2-15.4-38.7-40.9-39.8-77.6a43.4 43.4 0 0 1 .3-7.2c1.7-14.9 11.1-68.1 55.8-77.8a47.5 47.5 0 0 1 42 10.9zM189.9 475.6a85.5 85.5 0 0 1-38.2 10.6C80.6 488.1 3.2 420.1 69 320.1c0 0 16.5-28.6 50.9-44.5a183 183 0 0 0 33.3-20.3l53.9-40.9s16.8-13.7 46.3-12a89.6 89.6 0 0 1 55.1 23.6c18.6 17.1 52.8 47.9 65.1 55.5C498 352.7 454 491.9 349 492.3a118.3 118.3 0 0 1-49.6-10.9c-20.6-9.3-69.8-27.1-109.5-5.8z"/><path fill="#fff" d="M244.6 399.3l7.4-7.4c6.5-8.7 12.5-6.5 15.8-4a4.8 4.8 0 0 1 1.6 5.6l-4.7 11.7a14.1 14.1 0 0 1-7.1 7.7l-9.8 4.6c-4.7 2.2 4.3-3.3-.8-4.7l43.9-45.3c-16.8-21.8-8.7-32.3-4-35.2a10.4 10.4 0 0 1 7.7-1.1c48.1 11.5 56-7.3 56-7.3 9.4-12.9-19.6-17.4-30.2-18.1a47.3 47.3 0 0 0-5.3-.1c-9.4.2-21.8-6.2-21.8-6.2-32.4-24.7-79.8-16.9-79.8-16.9C193.1 280.1 180 260 163 248l-64 39.4 47.6 52.2a62.1 62.1 0 0 1 13.3 16.8c10.1 18.4 41.2 55.6 72.8 62.4"/><path fill="#fff" stroke="#231f20" stroke-miterlimit="10" stroke-width="1.81" d="M290.9 367.5c-16.8-21.8-8.7-32.3-4-35.2a10.4 10.4 0 0 1 7.7-1.1c48.1 11.5 56-7.3 56-7.3 9.4-12.9-19.6-17.4-30.2-18.1a47.3 47.3 0 0 0-5.3-.1c-9.4.2-21.8-6.2-21.8-6.2-32.4-24.7-79.8-16.9-79.8-16.9-19.9-2.4-22.8-15.2-39.1-26.5a18 18 0 0 1-2.9-2.6l-6.4-7.2"/><path fill="none" stroke="#e9e8e8" stroke-miterlimit="10" stroke-width=".87" d="M244.1 419.2c4.8 4.7 5 8.2 24.2 7.8a13.9 13.9 0 0 0 5.6-1.3l11.5-5.5a12.8 12.8 0 0 0 3.5-2.6l5.1-5.3a7.9 7.9 0 0 0-.4-11c-3.4-2.9-8.5-4.6-15.4 1.1l-13.5 1.8"/><path fill="#fff" stroke="#231f20" stroke-miterlimit="10" stroke-width="1.81" d="M232.7 418.8c-31.6-6.8-62.7-44-72.8-62.4a62.1 62.1 0 0 0-13.3-16.8l-53.2-47.1"/><path fill="none" stroke="#e9e8e8" stroke-miterlimit="10" stroke-width=".85" d="M232.7 418.8a21.8 21.8 0 0 0 15.1-1.3l9.8-4.6a14.1 14.1 0 0 0 7.1-7.7l4.7-11.7a4.8 4.8 0 0 0-1.6-5.6c-3.3-2.5-9.3-4.7-15.8 4l-7.4 7.4"/><path fill="none" stroke="#e9e8e8" stroke-miterlimit="10" stroke-width=".99" d="M273.9 425.7l16 7.4a8.9 8.9 0 0 0 8.4-1.7l20-16.8a3.9 3.9 0 0 0-.4-6c-3.9-2.4-9.8-3.8-17.9 3.1a9.3 9.3 0 0 1-8.1 2.1"/><path fill="#1c191a" stroke="#fff" stroke-miterlimit="10" stroke-width="1.81" d="M314.7 420.8l46.4 70.5c28.6.1 53.6-12.6 73.4-43.4-31.7-10.1-133.9-78.2-133.9-78.2-54-45.3-93.4-31.5-96.8 1.9a19.7 19.7 0 0 0 4.3 14.8 17.5 17.5 0 0 0 14.8 6.4"/><path fill="none" stroke="#fff" stroke-miterlimit="10" stroke-width="1.81" d="M244.1 354.1c-23.5-.2-30.7 12.6-30.5 23.6a17.1 17.1 0 0 0 13.3 16l2.5.7 15.2 4.9"/><path fill="#fff" stroke="#231f20" stroke-miterlimit="10" stroke-width="1.81" d="M273.9 425.7l16 7.4a8.9 8.9 0 0 0 8.4-1.7l20-16.8a3.9 3.9 0 0 0-.4-6c-3.9-2.4-9.8-3.8-17.9 3.1a9.3 9.3 0 0 1-8.1 2.1"/><path fill="#fff" stroke="#231f20" stroke-miterlimit="10" stroke-width="1.81" d="M244.1 419.2c4.8 4.7 5 8.2 24.2 7.8a13.9 13.9 0 0 0 5.6-1.3l11.5-5.5a12.8 12.8 0 0 0 3.5-2.6l5.1-5.3a7.9 7.9 0 0 0-.4-11c-3.4-2.9-8.5-4.6-15.4 1.1l-13.5 1.8"/><path fill="#fff" stroke="#231f20" stroke-miterlimit="10" stroke-width="1.81" d="M244.6 399.3l7.4-7.4c6.5-8.7 12.5-6.5 15.8-4a4.8 4.8 0 0 1 1.6 5.6l-4.7 11.7a14.1 14.1 0 0 1-7.1 7.7l-9.8 4.6a21.8 21.8 0 0 1-15.1 1.3"/></svg>