<svg xmlns="http://www.w3.org/2000/svg" width="205" height="193.2" viewBox="0 0 205 193.2"><circle cx="114.4" cy="90.5" r="88.4" fill="#c7eafb"/><path fill="none" stroke="#231f20" stroke-miterlimit="10" stroke-width="1.26" d="M61.3 113.8c-4 4.7-17.2 21.5-25 29.4-25.1 25 5.8 56.2 36.4 44.8 0 0 10.8-5.5 24.7.3 23.3 9.6 72.3-12.8 29.5-51.8 0 0-10.3-9.9-13.8-16.5a33.5 33.5 0 0 0-9.4-11.4c-9.5-7.1-26.1-14-42.4 5.2zm15.2-66.1a17.4 17.4 0 0 0-4.6-10.4c-6.1-6.6-14-4.3-24.3 6.2 0 0-37.5 38.5 10.7 56.6 0 0 6.6 1.5 13.6-6.7a29.9 29.9 0 0 0 6.9-22.8zm-72 46.8C6.7 84.3 17 71.8 31.6 89.9c0 0 21.2 24.8 7 44a12.1 12.1 0 0 1-11.6 4.8C16.3 137-3 129.2 4.5 94.5zM93.4 52c2.4-14.7 12.2-26.8 27.6-11.4 0 0 37 35.5-2.3 59.6 0 0-34.1 3.4-25.3-48.2zm44.5 86.8c-14.1-3.7-16.1-33.5 5.9-55.1 0 0 16.3-12.5 24.3 16.5 0 0 4.5 47.7-30.2 38.6z"/></svg>