<svg xmlns="http://www.w3.org/2000/svg" width="1070.8" height="492.3" viewBox="0 0 1070.8 492.3"><path fill="#231f20" d="M85.2 113.8c22.7 14.5 39.7 46.3 39.3 75a57.2 57.2 0 0 0 .2 5.9c2.1 18.9-5.4 48.8-22.7 66.7-12.4 13-31.4 17.3-48.5 11.8C22.2 263 8.4 239.5 1.1 203.5a43.1 43.1 0 0 1-.9-7.1c-.8-15.1-.6-69.1 41.7-86.2a47.7 47.7 0 0 1 43.3 3.6zM201.5 7.2c22.7 14.4 39.7 46.3 39.3 75a57.2 57.2 0 0 0 .2 5.9c2 18.9-5.4 48.7-22.7 66.7a47.1 47.1 0 0 1-48.5 11.7c-31.4-10.1-45.1-33.7-52.4-69.6a57.7 57.7 0 0 1-1-7.1c-.8-15.1-.6-69.1 41.8-86.2 14.2-5.7 30.3-4.7 43.3 3.6zm160 10.5c19.9 18.2 31.3 52.4 26 80.7a38.5 38.5 0 0 0-.8 5.8c-1.2 19-13.6 47.1-33.7 61.9a47.2 47.2 0 0 1-49.8 3.3c-29.2-15.4-38.7-40.9-39.8-77.6a41.8 41.8 0 0 1 .3-7.1c1.8-15 11.1-68.2 55.8-77.8a47.1 47.1 0 0 1 42 10.8zM472.7 131c19.9 18.1 31.3 52.3 26 80.6a38.1 38.1 0 0 0-.8 5.9c-1.2 18.9-13.7 47-33.7 61.8a47.2 47.2 0 0 1-49.8 3.3c-29.2-15.3-38.7-40.9-39.8-77.6a42.2 42.2 0 0 1 .3-7.1c1.7-15 11.1-68.2 55.8-77.8a46.9 46.9 0 0 1 42 10.9zM187.4 473.2a86.8 86.8 0 0 1-38.2 10.6C78.1 485.7.7 417.6 66.5 317.6c0 0 16.5-28.5 50.9-44.5a182.5 182.5 0 0 0 33.3-20.2l53.9-40.9s16.8-13.8 46.3-12a90.1 90.1 0 0 1 55.1 23.5c18.6 17.1 52.8 47.9 65.1 55.5 124.4 71.3 80.4 210.5-24.6 210.9a119.8 119.8 0 0 1-49.6-10.9c-20.6-9.4-69.8-27.2-109.5-5.8z"/><path fill="#fff" d="M242.1 396.9l7.4-7.4c6.5-8.7 12.5-6.5 15.8-4a4.8 4.8 0 0 1 1.6 5.6l-4.7 11.7a13.9 13.9 0 0 1-7.1 7.6l-9.8 4.6c-4.7 2.2 4.3-3.3-.8-4.6l43.9-45.3c-16.8-21.8-8.7-32.3-4-35.3a10.4 10.4 0 0 1 7.7-1.1c48.1 11.6 56-7.2 56-7.2 9.4-13-19.6-17.4-30.2-18.2a46.8 46.8 0 0 0-5.3 0c-9.4.2-21.8-6.2-21.8-6.2-32.4-24.7-79.8-17-79.8-17-20.4-2.4-33.5-22.6-50.5-34.6l-64 39.5 47.6 52.1a63.7 63.7 0 0 1 13.3 16.8c10.1 18.4 41.2 55.7 72.8 62.5"/><path fill="#fff" stroke="#231f20" stroke-miterlimit="10" stroke-width="1.81" d="M288.4 365.1c-16.8-21.8-8.7-32.3-4-35.3a10.4 10.4 0 0 1 7.7-1.1c48.1 11.6 56-7.2 56-7.2 9.4-13-19.6-17.4-30.2-18.2a46.8 46.8 0 0 0-5.3 0c-9.4.2-21.8-6.2-21.8-6.2-32.4-24.7-79.8-17-79.8-17-19.9-2.4-22.8-15.1-39.1-26.5a17.4 17.4 0 0 1-2.9-2.5l-6.4-7.2"/><path fill="none" stroke="#e9e8e8" stroke-miterlimit="10" stroke-width=".87" d="M241.6 416.8c4.8 4.7 5 8.1 24.2 7.8a14 14 0 0 0 5.6-1.4l11.5-5.5a12.4 12.4 0 0 0 3.5-2.5l5.1-5.3a7.8 7.8 0 0 0-.4-11c-3.4-3-8.5-4.7-15.4 1.1l-13.5 1.8"/><path fill="#fff" stroke="#231f20" stroke-miterlimit="10" stroke-width="1.81" d="M230.2 416.4c-31.6-6.8-62.7-44.1-72.8-62.5a63.7 63.7 0 0 0-13.3-16.8L90.9 290"/><path fill="none" stroke="#e9e8e8" stroke-miterlimit="10" stroke-width=".85" d="M230.2 416.4a22.4 22.4 0 0 0 15.1-1.4l9.8-4.6a13.9 13.9 0 0 0 7.1-7.6l4.7-11.7a4.8 4.8 0 0 0-1.6-5.6c-3.3-2.5-9.3-4.7-15.8 4l-7.4 7.4"/><path fill="none" stroke="#e9e8e8" stroke-miterlimit="10" stroke-width=".99" d="M271.4 423.2l16 7.4a8.4 8.4 0 0 0 8.4-1.7l20-16.7a3.9 3.9 0 0 0-.4-6c-3.9-2.5-9.8-3.9-17.9 3a9.3 9.3 0 0 1-8.1 2.2"/><path fill="#1c191a" stroke="#fff" stroke-miterlimit="10" stroke-width="1.81" d="M312.2 418.4l46.4 70.5c28.6.1 53.6-12.6 73.4-43.5-31.7-10.1-133.9-78.1-133.9-78.1-54-45.3-93.4-31.6-96.8 1.9a19.4 19.4 0 0 0 4.3 14.7 17.3 17.3 0 0 0 14.8 6.5"/><path fill="none" stroke="#fff" stroke-miterlimit="10" stroke-width="1.81" d="M241.6 351.7c-23.5-.2-30.7 12.6-30.5 23.5a17.2 17.2 0 0 0 13.3 16.1l2.5.6 15.2 5"/><path fill="#fff" stroke="#231f20" stroke-miterlimit="10" stroke-width="1.81" d="M271.4 423.2l16 7.4a8.4 8.4 0 0 0 8.4-1.7l20-16.7a3.9 3.9 0 0 0-.4-6c-3.9-2.5-9.8-3.9-17.9 3a9.3 9.3 0 0 1-8.1 2.2"/><path fill="#fff" stroke="#231f20" stroke-miterlimit="10" stroke-width="1.81" d="M241.6 416.8c4.8 4.7 5 8.1 24.2 7.8a14 14 0 0 0 5.6-1.4l11.5-5.5a12.4 12.4 0 0 0 3.5-2.5l5.1-5.3a7.8 7.8 0 0 0-.4-11c-3.4-3-8.5-4.7-15.4 1.1l-13.5 1.8"/><path fill="#fff" stroke="#231f20" stroke-miterlimit="10" stroke-width="1.81" d="M242.1 396.9l7.4-7.4c6.5-8.7 12.5-6.5 15.8-4a4.8 4.8 0 0 1 1.6 5.6l-4.7 11.7a13.9 13.9 0 0 1-7.1 7.6l-9.8 4.6a22.4 22.4 0 0 1-15.1 1.4"/><path fill="#f47521" d="M595.5 290.7v-33.6h-27.8v33.6h-23v-86.6h23v34h27.8v-34h22.9v86.6zm85.4-35v-51.6h22.8l.2 54.3c0 24.1-15.2 33.7-36.7 33.7-24.8 0-35.6-10.5-35.6-34.3v-53.7h23v51.1c0 12.3 1.3 19.2 13.4 19.2s12.9-5.7 12.9-18.7zm111.3 35v-64.4h-.8l-16.9 64.4h-19.8l-16-64.6h-.7v64.6h-21v-86.6h34l14 57.9h.8l13.8-57.9h33.9v86.6zm115.4 0h-25l-6.3-18.6h-26.2l-5.7 18.6h-23.8l28-86.6h28.2zm-45.3-65.6l-8.9 29.5h18.3l-8.8-29.5zm72.7 10.3v55.3h-20.8v-86.6h26.7l27.5 55.9v-55.9H989v86.6h-26zm128.5 37.2v18.1h-60.2v-86.6h57.6V222h-34.6v17h32.7v17.6h-32.7v16z"/><path fill="#231f20" d="M570.5 176.7h-6.3l-3.3-9.7H548l-3.3 9.7h-5.8l11.8-35.5h7.3zm-16.2-30.2l-5.2 15.7h10.4l-5.1-15.7zm41.8 30.2l-7.7-14.3h-6.7v14.3H576v-35.5h12.8c8.8 0 11.6 4.8 11.6 9.8s-2.7 8.5-6.6 10l8.5 15.7zm-1.6-25.3c0-4.2-2.8-5.5-7.5-5.5h-5.3v11.9h5.5c4.2 0 7.3-1.3 7.3-6.4zm18.1-2.6v27.9h-5.3v-35.5h7.2l15.6 27.8v-27.8h5.2v35.5h-6.7zm31.3 27.9v-35.5h12.3c9.1 0 11.8 5.2 11.8 10.8 0 8.5-4.9 12.3-13.7 12.3h-4.8v12.4zm18.2-24.3c0-4.9-2.7-6.5-7.6-6.5h-5v13.7h4.3c4.6 0 8.3-1.1 8.3-7.2zm32.2 24.3l-7.7-14.3h-6.7v14.3h-5.7v-35.5H687c8.9 0 11.6 4.8 11.6 9.8s-2.6 8.5-6.6 10l8.5 15.7zm-1.6-25.3c0-4.2-2.8-5.5-7.4-5.5h-5.4v11.9h5.5c4.2 0 7.3-1.3 7.3-6.4zm12.8 25.3v-35.5h5.8v35.5zm12.2-17.6c0-10.6 5.9-18.5 17-18.5s15.9 7.9 15.9 17.7c0 11.6-5.5 19-16.7 19s-16.2-7.6-16.2-18.2zm27-.3c0-9-4-13.2-10.2-13.2s-10.8 4.3-10.8 13.4 4.1 13.4 10.5 13.4 10.5-4 10.5-13.6zm32.5 17.9l-7.7-14.3h-6.7v14.3h-5.7v-35.5h12.8c8.9 0 11.6 4.8 11.6 9.8s-2.6 8.5-6.6 10l8.5 15.7zm-1.6-25.3c0-4.2-2.8-5.5-7.4-5.5h-5.4v11.9h5.5c4.2 0 7.3-1.3 7.3-6.4zm36.5 6.7l-1.4.6a70.2 70.2 0 0 0 7.6 9.5c1.5-2.2 2-5.3 2.1-8.6h5a19 19 0 0 1-3.5 11.5 6.6 6.6 0 0 0 4 1.6 5.4 5.4 0 0 0 2.1-.5l.8 4.2a8.3 8.3 0 0 1-3.7.8 11.4 11.4 0 0 1-7.1-2.5c-2.1 1.6-5.2 2.6-9.3 2.6-7.3 0-11.6-4.2-11.6-9.8s2.3-7.7 6.8-9.9a12.4 12.4 0 0 1-1.8-6.6c0-5.1 4-8.6 9.6-8.6 3.8 0 7.9 1.5 7.9 6.9 0 2.9-1.4 6.2-7.5 8.8zm2.4 13.8a58 58 0 0 1-8.7-10.8 6.5 6.5 0 0 0-3 5.8c0 3.2 2.2 6.1 6.9 6.1a9 9 0 0 0 4.8-1.1zm-5.5-16.5l1.3-.6c3.1-1.3 4.5-3 4.5-5.3s-1.1-3.1-3.4-3.1a3.5 3.5 0 0 0-3.8 3.8 11.3 11.3 0 0 0 1.4 5.2zm35.7-14.2h11.5c12.3 0 17.6 6.6 17.6 17.2s-5.7 18.3-18.4 18.3h-10.7zm23.2 17.8c0-10.1-4.3-13.1-12.1-13.1h-5.4v26.2h4.9c8.8 0 12.6-4.9 12.6-13.1zm12.4 17.7v-35.5h5.7v35.5zm18.4-26.7c0 3.9 3.8 5 8 6.3s11 3.2 11 10.3-6.2 10.7-12.9 10.7-12.5-2.5-13.3-10.5l5.3-.8c.8 3.6 2.3 6.8 8.1 6.8 3.5 0 7.1-1.2 7.1-5.4s-3.7-5.1-7.9-6.2-11.1-3-11.1-10.5 5.4-10.1 12.4-10.1 11.3 2.3 12 10.2l-5.3.6c-.5-3.4-1.8-6.2-6.8-6.2s-6.6 2-6.6 4.8zm31.4-4h-10.7v-4.8h27v4.8h-10.6v30.7h-5.7zm41.2 30.7l-7.7-14.3h-6.7v14.3h-5.7v-35.5H964c8.9 0 11.6 4.8 11.6 9.8s-2.6 8.5-6.6 10l8.5 15.7zm-1.6-25.3c0-4.2-2.8-5.5-7.4-5.5h-5.4v11.9h5.5c4.2 0 7.3-1.3 7.3-6.4zm12.8 25.3v-35.5h5.8v35.5zm12.2-17.2c0-11.7 6.3-18.9 16.8-18.9 7.7 0 13 3.8 13.6 12.4l-5.3.5c-.6-5.4-3-8-8.3-8s-10.9 4.3-10.9 13.6 3.8 13.4 10.4 13.4 7.7-2.6 8.8-7.1l5.1 1c-1.3 8-7.9 10.9-14.2 10.9-11.4 0-16-7.1-16-17.8zm42.7-13.5h-10.6v-4.8h26.9v4.8h-10.5v30.7h-5.8z"/><path fill="#155795" d="M563.2 341.6c0 6.4 7.5 8.6 16.3 11 12.7 3.5 27.9 7.8 27.9 26.3 0 20.4-16.7 28.5-34.7 28.5-14 0-33.6-3.1-34.7-28l20.5-2.9c1.2 7.9 3.5 14.4 14.8 14.4 6.7 0 12-2.3 12-8.9s-7.2-8.5-16-10.6c-12.7-3.1-28.3-7-28.3-26.5 0-17.8 15-27.1 33-27.1 15.6 0 31.3 3.9 32.2 25.5l-20.8 2.2c-.3-8-3.7-11.3-12-11.3-6.5 0-10.2 2.5-10.2 7.4zm50.8 21.6c0-25.7 14.2-45.4 43.3-45.4s40.6 19.7 40.6 43.8c0 28-13.4 45.8-42.6 45.8S614 389 614 363.2zm60.3-.6c0-19.3-6.1-26.9-17.5-26.9s-19.1 7.8-19.1 27.1 6.6 26.6 18.4 26.6 18.2-6.3 18.2-26.8zm30.8.8c0-26.6 14-45.6 42.7-45.6 20.1 0 34.4 9.1 35.3 31.7l-20.9 2c-.6-12-5.5-16.1-14.8-16.1-11.7 0-18.5 8.1-18.5 27s5.9 27.3 18.3 27.3c10.6 0 13.7-6.4 15.4-14l20.3 3.2c-2.5 21.4-20.9 28.5-36.7 28.5-29.5 0-41.1-16.8-41.1-44zM792 406v-86.7h23V406zm97.6-18.1V406h-60.2v-86.7h57.5v18h-34.6v17H885v17.6h-32.7v16zm28.7-50h-25.2v-18.6h73v18.6h-24.9V406h-22.9z"/><path fill="#155795" d="M1017 406h-23.1v-32l-30.2-54.7h25l16.7 34.5h.7l15.9-34.5h23.1l-28.2 54.6z"/></svg>